<svg width="216" height="35" viewBox="0 0 216 35" fill="none" xmlns="http://www.w3.org/2000/svg">
<path d="M1.19998 34.08C0.847982 34.08 0.559982 33.968 0.335981 33.744C0.111982 33.52 -1.84774e-05 33.248 -1.84774e-05 32.928V1.68002C-1.84774e-05 1.32802 0.111982 1.04002 0.335981 0.816016C0.559982 0.592015 0.847982 0.480015 1.19998 0.480015H4.99198C5.43998 0.480015 5.77598 0.608015 5.99998 0.864016C6.22398 1.08801 6.36798 1.26401 6.43198 1.39201L15.696 18.672L25.056 1.39201C25.12 1.26401 25.264 1.08801 25.488 0.864016C25.712 0.608015 26.048 0.480015 26.496 0.480015H30.24C30.592 0.480015 30.88 0.592015 31.104 0.816016C31.328 1.04002 31.44 1.32802 31.44 1.68002V32.928C31.44 33.248 31.328 33.52 31.104 33.744C30.88 33.968 30.592 34.08 30.24 34.08H26.208C25.856 34.08 25.568 33.968 25.344 33.744C25.152 33.52 25.056 33.248 25.056 32.928V12.144L18.336 24.96C18.176 25.248 17.968 25.504 17.712 25.728C17.456 25.92 17.12 26.016 16.704 26.016H14.736C14.288 26.016 13.936 25.92 13.68 25.728C13.456 25.504 13.264 25.248 13.104 24.96L6.38398 12.144V32.928C6.38398 33.248 6.27198 33.52 6.04798 33.744C5.82398 33.968 5.55198 34.08 5.23198 34.08H1.19998ZM48.8902 34.08C48.5702 34.08 48.2982 33.968 48.0742 33.744C47.8502 33.52 47.7382 33.248 47.7382 32.928V22.08L36.4102 2.01602C36.3782 1.95202 36.3462 1.87202 36.3142 1.77602C36.2822 1.68001 36.2662 1.58401 36.2662 1.48802C36.2662 1.20002 36.3622 0.960016 36.5542 0.768017C36.7462 0.576015 36.9702 0.480015 37.2262 0.480015H41.4982C41.8822 0.480015 42.1862 0.576015 42.4102 0.768017C42.6662 0.960016 42.8422 1.16802 42.9382 1.39201L51.0982 15.36L59.2102 1.39201C59.3382 1.16802 59.5142 0.960016 59.7382 0.768017C59.9942 0.576015 60.3142 0.480015 60.6982 0.480015H64.9222C65.2102 0.480015 65.4502 0.576015 65.6422 0.768017C65.8342 0.960016 65.9302 1.20002 65.9302 1.48802C65.9302 1.58401 65.9142 1.68001 65.8822 1.77602C65.8822 1.87202 65.8502 1.95202 65.7862 2.01602L54.4582 22.08V32.928C54.4582 33.248 54.3462 33.52 54.1222 33.744C53.8982 33.968 53.6102 34.08 53.2582 34.08H48.8902ZM81.4957 34.08C81.1757 34.08 80.9037 33.968 80.6797 33.744C80.4557 33.52 80.3437 33.248 80.3437 32.928V1.68002C80.3437 1.32802 80.4557 1.04002 80.6797 0.816016C80.9037 0.592015 81.1757 0.480015 81.4957 0.480015H95.4157C98.0077 0.480015 100.12 0.880015 101.752 1.68002C103.384 2.44802 104.584 3.52002 105.352 4.89602C106.152 6.27202 106.552 7.87202 106.552 9.69602C106.552 10.912 106.328 11.984 105.88 12.912C105.464 13.808 104.936 14.544 104.296 15.12C103.688 15.696 103.08 16.144 102.472 16.464C103.72 17.04 104.824 18 105.784 19.344C106.744 20.688 107.224 22.288 107.224 24.144C107.224 26.064 106.792 27.776 105.928 29.28C105.064 30.784 103.784 31.968 102.088 32.832C100.392 33.664 98.2957 34.08 95.7997 34.08H81.4957ZM87.0157 28.992H95.0317C96.7597 28.992 98.0717 28.528 98.9677 27.6C99.8637 26.64 100.312 25.488 100.312 24.144C100.312 22.736 99.8477 21.568 98.9197 20.64C98.0237 19.712 96.7277 19.248 95.0317 19.248H87.0157V28.992ZM87.0157 14.256H94.5517C96.2477 14.256 97.5117 13.856 98.3437 13.056C99.2077 12.224 99.6397 11.152 99.6397 9.84002C99.6397 8.49602 99.2077 7.45601 98.3437 6.72001C97.5117 5.95201 96.2477 5.56802 94.5517 5.56802H87.0157V14.256ZM123.714 34.56C121.154 34.56 118.994 34.112 117.234 33.216C115.506 32.32 114.178 31.056 113.25 29.424C112.354 27.792 111.842 25.888 111.714 23.712C111.682 23.136 111.666 22.432 111.666 21.6C111.666 20.768 111.682 20.064 111.714 19.488C111.842 17.28 112.37 15.376 113.298 13.776C114.258 12.144 115.602 10.88 117.33 9.98402C119.09 9.08802 121.218 8.64002 123.714 8.64002C126.21 8.64002 128.322 9.08802 130.05 9.98402C131.81 10.88 133.154 12.144 134.082 13.776C135.042 15.376 135.586 17.28 135.714 19.488C135.746 20.064 135.762 20.768 135.762 21.6C135.762 22.432 135.746 23.136 135.714 23.712C135.586 25.888 135.058 27.792 134.13 29.424C133.234 31.056 131.906 32.32 130.146 33.216C128.418 34.112 126.274 34.56 123.714 34.56ZM123.714 29.808C125.41 29.808 126.722 29.28 127.65 28.224C128.578 27.136 129.09 25.552 129.186 23.472C129.218 22.992 129.234 22.368 129.234 21.6C129.234 20.832 129.218 20.208 129.186 19.728C129.09 17.68 128.578 16.112 127.65 15.024C126.722 13.936 125.41 13.392 123.714 13.392C122.018 13.392 120.706 13.936 119.778 15.024C118.85 16.112 118.338 17.68 118.242 19.728C118.21 20.208 118.194 20.832 118.194 21.6C118.194 22.368 118.21 22.992 118.242 23.472C118.338 25.552 118.85 27.136 119.778 28.224C120.706 29.28 122.018 29.808 123.714 29.808ZM152.12 34.56C149.56 34.56 147.4 34.112 145.64 33.216C143.912 32.32 142.584 31.056 141.656 29.424C140.76 27.792 140.248 25.888 140.12 23.712C140.088 23.136 140.072 22.432 140.072 21.6C140.072 20.768 140.088 20.064 140.12 19.488C140.248 17.28 140.776 15.376 141.704 13.776C142.664 12.144 144.008 10.88 145.736 9.98402C147.496 9.08802 149.624 8.64002 152.12 8.64002C154.616 8.64002 156.728 9.08802 158.456 9.98402C160.216 10.88 161.56 12.144 162.488 13.776C163.448 15.376 163.992 17.28 164.12 19.488C164.152 20.064 164.168 20.768 164.168 21.6C164.168 22.432 164.152 23.136 164.12 23.712C163.992 25.888 163.464 27.792 162.536 29.424C161.64 31.056 160.312 32.32 158.552 33.216C156.824 34.112 154.68 34.56 152.12 34.56ZM152.12 29.808C153.816 29.808 155.128 29.28 156.056 28.224C156.984 27.136 157.496 25.552 157.592 23.472C157.624 22.992 157.64 22.368 157.64 21.6C157.64 20.832 157.624 20.208 157.592 19.728C157.496 17.68 156.984 16.112 156.056 15.024C155.128 13.936 153.816 13.392 152.12 13.392C150.424 13.392 149.112 13.936 148.184 15.024C147.256 16.112 146.744 17.68 146.648 19.728C146.616 20.208 146.6 20.832 146.6 21.6C146.6 22.368 146.616 22.992 146.648 23.472C146.744 25.552 147.256 27.136 148.184 28.224C149.112 29.28 150.424 29.808 152.12 29.808ZM170.686 34.08C170.366 34.08 170.094 33.968 169.87 33.744C169.646 33.52 169.534 33.248 169.534 32.928V1.15201C169.534 0.832015 169.646 0.560016 169.87 0.336017C170.094 0.112016 170.366 1.52588e-05 170.686 1.52588e-05H174.574C174.926 1.52588e-05 175.198 0.112016 175.39 0.336017C175.614 0.560016 175.726 0.832015 175.726 1.15201V17.568L183.79 9.93602C184.078 9.68002 184.334 9.48802 184.558 9.36001C184.782 9.20002 185.118 9.12002 185.566 9.12002H190.03C190.35 9.12002 190.606 9.21602 190.798 9.40802C190.99 9.60002 191.086 9.85602 191.086 10.176C191.086 10.304 191.054 10.448 190.99 10.608C190.926 10.768 190.798 10.912 190.606 11.04L180.718 20.304L191.806 32.208C192.126 32.528 192.286 32.8 192.286 33.024C192.286 33.344 192.174 33.6 191.95 33.792C191.758 33.984 191.518 34.08 191.23 34.08H186.67C186.19 34.08 185.838 34.016 185.614 33.888C185.422 33.728 185.182 33.52 184.894 33.264L175.726 23.616V32.928C175.726 33.248 175.614 33.52 175.39 33.744C175.198 33.968 174.926 34.08 174.574 34.08H170.686ZM204.864 34.56C202.944 34.56 201.296 34.336 199.92 33.888C198.576 33.44 197.472 32.88 196.608 32.208C195.744 31.536 195.104 30.864 194.688 30.192C194.272 29.52 194.048 28.96 194.016 28.512C193.984 28.16 194.08 27.888 194.304 27.696C194.56 27.472 194.832 27.36 195.12 27.36H198.912C199.04 27.36 199.152 27.376 199.248 27.408C199.344 27.44 199.472 27.536 199.632 27.696C200.048 28.048 200.48 28.416 200.928 28.8C201.408 29.184 201.968 29.52 202.608 29.808C203.248 30.064 204.048 30.192 205.008 30.192C206.256 30.192 207.296 29.952 208.128 29.472C208.992 28.96 209.424 28.24 209.424 27.312C209.424 26.64 209.232 26.096 208.848 25.68C208.496 25.264 207.824 24.896 206.832 24.576C205.84 24.224 204.432 23.856 202.608 23.472C200.816 23.056 199.328 22.528 198.144 21.888C196.96 21.248 196.08 20.448 195.504 19.488C194.928 18.528 194.64 17.408 194.64 16.128C194.64 14.88 195.008 13.696 195.744 12.576C196.512 11.424 197.632 10.48 199.104 9.74402C200.608 9.00802 202.464 8.64002 204.672 8.64002C206.4 8.64002 207.904 8.86402 209.184 9.31202C210.464 9.72802 211.52 10.256 212.352 10.896C213.216 11.536 213.872 12.192 214.32 12.864C214.768 13.504 215.008 14.064 215.04 14.544C215.072 14.896 214.976 15.184 214.752 15.408C214.528 15.6 214.272 15.696 213.984 15.696H210.432C210.272 15.696 210.128 15.664 210 15.6C209.872 15.536 209.744 15.456 209.616 15.36C209.264 15.04 208.88 14.704 208.464 14.352C208.048 14 207.536 13.696 206.928 13.44C206.352 13.152 205.584 13.008 204.624 13.008C203.408 13.008 202.48 13.28 201.84 13.824C201.2 14.336 200.88 14.992 200.88 15.792C200.88 16.336 201.024 16.816 201.312 17.232C201.632 17.616 202.256 17.984 203.184 18.336C204.112 18.688 205.52 19.056 207.408 19.44C209.552 19.824 211.248 20.4 212.496 21.168C213.776 21.904 214.672 22.768 215.184 23.76C215.728 24.72 216 25.792 216 26.976C216 28.416 215.568 29.712 214.704 30.864C213.872 32.016 212.624 32.928 210.96 33.6C209.328 34.24 207.296 34.56 204.864 34.56Z" fill="black"/>
</svg>
